<svg width="36" height="34" viewBox="0 0 36 34" fill="none" xmlns="http://www.w3.org/2000/svg">
<path d="M2 24.6152C2 28.5785 5.20955 31.7881 9.17285 31.7881C13.1362 31.7881 16.3457 28.5785 16.3457 24.6152H27.0442" stroke="#FF94E4" stroke-width="2.61" stroke-miterlimit="10"/>
<path d="M28.5523 24.5876C28.5523 25.4068 27.8882 26.0708 27.0691 26.0708C26.2499 26.0708 25.5859 25.4068 25.5859 24.5876C25.5859 23.7685 26.2499 23.1044 27.0691 23.1044C27.8882 23.1044 28.5523 23.7685 28.5523 24.5876Z" fill="#FF94E4" stroke="#FF94E4" stroke-width="2.43148"/>
<path d="M10.5347 24.6169C10.5347 25.4361 9.87063 26.1001 9.05148 26.1001C8.23233 26.1001 7.56828 25.4361 7.56828 24.6169C7.56828 23.7978 8.23233 23.1337 9.05148 23.1337C9.87063 23.1337 10.5347 23.7978 10.5347 24.6169Z" fill="#FF94E4" stroke="#FF94E4" stroke-width="2.43148"/>
<path d="M30.3501 30.8631C33.8028 28.9179 35.0186 24.5412 33.0734 21.0885C31.1282 17.6358 26.7516 16.4201 23.2989 18.3653L18.0469 9.05273" stroke="#FF94E4" stroke-width="2.61" stroke-miterlimit="10"/>
<path d="M19.5315 9.02902C19.5315 9.84817 18.8675 10.5122 18.0483 10.5122C17.2292 10.5122 16.5651 9.84817 16.5651 9.02902C16.5651 8.20987 17.2292 7.54582 18.0483 7.54582C18.8675 7.54582 19.5315 8.20987 19.5315 9.02902Z" fill="#FF94E4" stroke="#FF94E4" stroke-width="2.43148"/>
<path d="M21.6467 2.97354C18.2183 0.979728 13.8416 2.14684 11.8478 5.57522C9.854 9.0036 11.0211 13.3803 14.4495 15.3741L9.07593 24.638" stroke="#FF94E4" stroke-width="2.61" stroke-miterlimit="10"/>
</svg>
