<svg xmlns="http://www.w3.org/2000/svg" version="1.1" xmlns:xlink="http://www.w3.org/1999/xlink" xmlns:svgjs="http://svgjs.com/svgjs" width="51" height="35"><svg width="51" height="35" viewBox="0 0 51 35" fill="none" xmlns="http://www.w3.org/2000/svg">
<path d="M13.4137 14.9394C16.2849 14.9394 18.6178 15.7918 20.4123 17.4966C22.2069 19.1566 23.1041 21.4446 23.1041 24.3607C23.1041 27.2768 22.1171 29.677 20.1431 31.5612C18.214 33.4455 15.4549 34.3876 11.8659 34.3876C8.18711 34.3876 5.36073 33.1763 3.38675 30.7537C1.41277 28.2862 0.425781 25.1458 0.425781 21.3324C0.425781 17.6537 1.32304 14.4235 3.11757 11.642C4.9121 8.86047 7.15526 6.50516 9.84704 4.57604C12.5837 2.60206 15.2979 1.07671 17.9897 0L20.1431 4.37415C18.3038 5.09197 16.4644 6.10139 14.625 7.40242C12.8304 8.70345 11.3275 10.1615 10.1162 11.7766C8.90492 13.3917 8.27684 15.0292 8.23197 16.6891C8.41143 16.3751 8.94978 16.0161 9.84704 15.6124C10.7892 15.1638 11.978 14.9394 13.4137 14.9394ZM40.7353 14.9394C43.6066 14.9394 45.9395 15.7918 47.734 17.4966C49.5285 19.1566 50.4258 21.4446 50.4258 24.3607C50.4258 27.2768 49.4388 29.677 47.4648 31.5612C45.5357 33.4455 42.7766 34.3876 39.1876 34.3876C35.5088 34.3876 32.6824 33.1763 30.7084 30.7537C28.7344 28.2862 27.7475 25.1458 27.7475 21.3324C27.7475 17.6537 28.6447 14.4235 30.4392 11.642C32.2338 8.86047 34.4769 6.50516 37.1687 4.57604C39.9054 2.60206 42.6196 1.07671 45.3114 0L47.4648 4.37415C45.6254 5.09197 43.786 6.10139 41.9466 7.40242C40.1521 8.70345 38.6492 10.1615 37.4379 11.7766C36.2266 13.3917 35.5985 15.0292 35.5536 16.6891C35.7331 16.3751 36.2715 16.0161 37.1687 15.6124C38.1108 15.1638 39.2997 14.9394 40.7353 14.9394Z" fill="#F86C54"></path>
</svg><style>@media (prefers-color-scheme: light) { :root { filter: none; } }
</style></svg>